{
	"asset":{
		"version":"2.0",
		"generator":"Created using the official Cinema 4D glTF Exporter 1.000x284978"
	},
	"scenes":[{
		"nodes":[0]
	}],
	"nodes":[{
		"name":"Plane",
		"mesh":0
	}],
	"meshes":[{
		"name":"Plane",
		"primitives":[{
			"attributes":{
				"POSITION":1,
				"NORMAL":2,
				"TEXCOORD_0":3
			},
			"indices":0
		}]
	}],
	"accessors":[{
		"bufferView":0,
		"type":"SCALAR",
		"componentType":5123,
		"count":123,
		"byteOffset":0,
		"min":[0],
		"max":[42]
	},
	{
		"bufferView":1,
		"type":"VEC3",
		"componentType":5126,
		"count":43,
		"byteOffset":0,
		"min":[-7.458152770996094,
		0.0,
		-30.0],
		"max":[7.458152770996094,
		1.0000000116860974e-7,
		38.425777435302737]
	},
	{
		"bufferView":1,
		"type":"VEC3",
		"componentType":5126,
		"count":43,
		"byteOffset":12,
		"min":[-3.327086872673135e-8,
		1.0,
		-1.2493938328361765e-8],
		"max":[3.327086872673135e-8,
		1.0,
		0.0]
	},
	{
		"bufferView":1,
		"type":"VEC2",
		"componentType":5126,
		"count":43,
		"byteOffset":24,
		"min":[0.0,
		0.0],
		"max":[1.0,
		1.0]
	}],
	"bufferViews":[{
		"buffer":0,
		"byteOffset":0,
		"byteLength":246,
		"target":34963
	},
	{
		"buffer":0,
		"byteOffset":248,
		"byteLength":1376,
		"target":34962,
		"byteStride":32
	}],
	"buffers":[{
		"uri":"data:application/octet-stream;base64,",
		"byteLength":1624
	}]
}