{
	"asset":{
		"version":"2.0",
		"generator":"Created using the official Cinema 4D glTF Exporter 1.000x284978"
	},
	"scenes":[{
		"nodes":[0]
	}],
	"nodes":[{
		"mesh":0,
		"name":"Plane"
	}],
	"meshes":[{
		"name":"Plane",
		"primitives":[{
			"attributes":{
				"POSITION":1,
				"NORMAL":2,
				"TEXCOORD_0":3
			},
			"indices":0
		}]
	}],
	"accessors":[{
		"bufferView":0,
		"type":"SCALAR",
		"componentType":5123,
		"count":498,
		"byteOffset":0,
		"min":[0],
		"max":[185]
	},
	{
		"bufferView":1,
		"type":"VEC3",
		"componentType":5126,
		"count":186,
		"byteOffset":0,
		"min":[-7.458152770996094,
		0.0,
		-30.0],
		"max":[7.458152770996094,
		1.8776246309280396,
		38.425777435302737]
	},
	{
		"bufferView":1,
		"type":"VEC3",
		"componentType":5126,
		"count":186,
		"byteOffset":12,
		"min":[-1.0,
		-1.0,
		-1.0],
		"max":[1.0,
		1.0,
		0.5324403047561646]
	},
	{
		"bufferView":1,
		"type":"VEC2",
		"componentType":5126,
		"count":186,
		"byteOffset":24,
		"min":[0.0,
		1.0],
		"max":[1.0,
		2.0]
	}],
	"bufferViews":[{
		"buffer":0,
		"byteOffset":0,
		"byteLength":996,
		"target":34963
	},
	{
		"buffer":0,
		"byteOffset":996,
		"byteLength":5952,
		"target":34962,
		"byteStride":32
	}],
	"buffers":[{
		"uri":"data:application/octet-stream;base64,",
		"byteLength":6948
	}]
}