{
	"asset":{
		"version":"2.0",
		"generator":"Created using the official Cinema 4D glTF Exporter 1.000x284978"
	},
	"scenes":[{
		"nodes":[0,
		1,
		2,
		3,
		4,
		5,
		6,
		7,
		8,
		9,
		10,
		11,
		12,
		13]
	}],
	"nodes":[{
		"name":"intake1_Gable_Vent",
		"translation":[-878.3704833984375,
		744.355712890625,
		44.75581359863281],
		"rotation":[0.0,
		-0.7071067690849304,
		0.0,
		0.7071067690849304],
		"scale":[1.0,
		1.0,
		1.0],
		"mesh":0
	},
	{
		"name":"intake2_Aluminum_UnderEave_Vent_2",
		"translation":[0.0,
		0.0,
		0.0],
		"rotation":[-0.5,
		-0.5,
		0.5,
		-0.5],
		"scale":[1.0,
		1.0,
		1.0],
		"mesh":1
	},
	{
		"name":"intake3_Continuos_UnderEave_Vent_1_2",
		"translation":[0.0,
		0.0,
		0.0],
		"rotation":[-0.5,
		-0.5,
		0.5,
		-0.5],
		"scale":[1.0,
		1.0,
		1.0],
		"mesh":2
	},
	{
		"name":"intake4_Plastic_Soffit_Vent_2",
		"translation":[0.0,
		0.0,
		0.0],
		"rotation":[-0.5,
		-0.5,
		0.5,
		-0.5],
		"scale":[1.0,
		1.0,
		1.0],
		"mesh":3
	},
	{
		"name":"intake5__Rooftop_Intake",
		"translation":[-330.9441223144531,
		707.9042358398438,
		424.5588073730469],
		"rotation":[0.0,
		0.0,
		0.0,
		-1.0],
		"scale":[1.0,
		1.0,
		1.0],
		"mesh":4
	},
	{
		"name":"intake6_closeable_soffit_vent_2",
		"translation":[0.0,
		0.0,
		0.0],
		"rotation":[-0.5,
		-0.5,
		0.5,
		-0.5],
		"scale":[1.0,
		1.0,
		1.0],
		"mesh":5
	},
	{
		"name":"exhaust1_Ridge_Vent_Mesh",
		"mesh":6
	},
	{
		"name":"exhaust2_Ridge_Vent_Mesh.1",
		"mesh":7
	},
	{
		"name":"exhaust2_Ridge_Vent_Shingle_1",
		"mesh":8
	},
	{
		"name":"exhaust3_Slantback_Roof_Louvers",
		"mesh":9
	},
	{
		"name":"exhaust4__Aluminum_Square_Roof_Louver",
		"translation":[0.0,
		867.5637817382813,
		-38.14126205444336],
		"rotation":[0.9584406614303589,
		-7.615665949574024e-17,
		7.615665949574024e-17,
		0.2852919399738312],
		"scale":[1.0,
		1.0,
		1.0],
		"mesh":10
	},
	{
		"name":"exhaust5_Whirlybirds",
		"translation":[-556.52734375,
		898.0899658203125,
		-65.57644653320313],
		"rotation":[0.0,
		0.0,
		0.0,
		-1.0],
		"scale":[1.0,
		1.0,
		1.0],
		"mesh":11
	},
	{
		"name":"exhaust6_Gable_Vent",
		"translation":[230.47885131835938,
		766.7918701171875,
		44.75581359863281],
		"rotation":[0.0,
		-0.7071067690849304,
		0.0,
		-0.7071067690849304],
		"scale":[1.0,
		1.0,
		1.0],
		"mesh":12
	},
	{
		"name":"exhaust7_Powered_Exhaust",
		"translation":[-323.7752380371094,
		898.0899658203125,
		-65.57644653320313],
		"rotation":[0.0,
		0.0,
		0.0,
		-1.0],
		"scale":[1.0,
		1.0,
		1.0],
		"children":[14,
		15]
	},
	{
		"name":"exhaust7_Powered_Exhaust-Roof",
		"mesh":13
	},
	{
		"name":"exhaust7_Powered_Exhaust-House Main",
		"mesh":14
	}],
	"meshes":[{
		"name":"intake1_Gable_Vent",
		"primitives":[{
			"attributes":{
				"POSITION":1,
				"NORMAL":2,
				"TEXCOORD_0":3
			},
			"indices":0,
			"material":0
		}]
	},
	{
		"name":"intake2_Aluminum_UnderEave_Vent_2",
		"primitives":[{
			"attributes":{
				"POSITION":5,
				"NORMAL":6,
				"TEXCOORD_0":7
			},
			"indices":4,
			"material":1
		}]
	},
	{
		"name":"intake3_Continuos_UnderEave_Vent_1_2",
		"primitives":[{
			"attributes":{
				"POSITION":9,
				"NORMAL":10,
				"TEXCOORD_0":11
			},
			"indices":8,
			"material":1
		}]
	},
	{
		"name":"intake4_Plastic_Soffit_Vent_2",
		"primitives":[{
			"attributes":{
				"POSITION":13,
				"NORMAL":14,
				"TEXCOORD_0":15
			},
			"indices":12,
			"material":1
		}]
	},
	{
		"name":"intake5__Rooftop_Intake",
		"primitives":[{
			"attributes":{
				"POSITION":17,
				"NORMAL":18,
				"TEXCOORD_0":19
			},
			"indices":16,
			"material":0
		}]
	},
	{
		"name":"intake6_closeable_soffit_vent_2",
		"primitives":[{
			"attributes":{
				"POSITION":21,
				"NORMAL":22,
				"TEXCOORD_0":23
			},
			"indices":20,
			"material":1
		}]
	},
	{
		"name":"exhaust1_Ridge_Vent_Mesh",
		"primitives":[{
			"attributes":{
				"POSITION":25,
				"NORMAL":26,
				"TEXCOORD_0":27
			},
			"indices":24,
			"material":2
		}]
	},
	{
		"name":"exhaust2_Ridge_Vent_Mesh.1",
		"primitives":[{
			"attributes":{
				"POSITION":29,
				"NORMAL":30,
				"TEXCOORD_0":31
			},
			"indices":28,
			"material":3
		}]
	},
	{
		"name":"exhaust2_Ridge_Vent_Shingle_1",
		"primitives":[{
			"attributes":{
				"POSITION":33,
				"NORMAL":34,
				"TEXCOORD_0":35
			},
			"indices":32,
			"material":0
		}]
	},
	{
		"name":"exhaust3_Slantback_Roof_Louvers",
		"primitives":[{
			"attributes":{
				"POSITION":37,
				"NORMAL":38,
				"TEXCOORD_0":39
			},
			"indices":36,
			"material":4
		}]
	},
	{
		"name":"exhaust4__Aluminum_Square_Roof_Louver",
		"primitives":[{
			"attributes":{
				"POSITION":41,
				"NORMAL":42,
				"TEXCOORD_0":43
			},
			"indices":40
		}]
	},
	{
		"name":"exhaust5_Whirlybirds",
		"primitives":[{
			"attributes":{
				"POSITION":45,
				"NORMAL":46,
				"TEXCOORD_0":47
			},
			"indices":44,
			"material":5
		}]
	},
	{
		"name":"exhaust6_Gable_Vent",
		"primitives":[{
			"attributes":{
				"POSITION":49,
				"NORMAL":50,
				"TEXCOORD_0":51
			},
			"indices":48,
			"material":0
		}]
	},
	{
		"name":"exhaust7_Powered_Exhaust-Roof",
		"primitives":[{
			"attributes":{
				"POSITION":53,
				"NORMAL":54,
				"TEXCOORD_0":55
			},
			"indices":52,
			"material":4
		}]
	},
	{
		"name":"exhaust7_Powered_Exhaust-House Main",
		"primitives":[{
			"attributes":{
				"POSITION":57,
				"NORMAL":58,
				"TEXCOORD_0":59
			},
			"indices":56,
			"material":5
		}]
	}],
	"accessors":[{
		"bufferView":0,
		"type":"SCALAR",
		"componentType":5123,
		"count":564,
		"byteOffset":0,
		"min":[0],
		"max":[367]
	},
	{
		"bufferView":1,
		"type":"VEC3",
		"componentType":5126,
		"count":368,
		"byteOffset":0,
		"min":[-24.526119232177736,
		-2.070343896320992e-10,
		-1.0],
		"max":[24.526119232177736,
		74.03263854980469,
		5.0]
	},
	{
		"bufferView":1,
		"type":"VEC3",
		"componentType":5126,
		"count":368,
		"byteOffset":12,
		"min":[-1.0,
		-1.0,
		-1.0],
		"max":[1.0,
		1.0,
		1.0]
	},
	{
		"bufferView":1,
		"type":"VEC2",
		"componentType":5126,
		"count":368,
		"byteOffset":24,
		"min":[3.353939348471613e-9,
		0.011068070307374],
		"max":[1.493043065071106,
		0.5]
	},
	{
		"bufferView":2,
		"type":"SCALAR",
		"componentType":5123,
		"count":2106,
		"byteOffset":0,
		"min":[0],
		"max":[1457]
	},
	{
		"bufferView":3,
		"type":"VEC3",
		"componentType":5126,
		"count":1458,
		"byteOffset":0,
		"min":[-528.4802856445313,
		-849.8025512695313,
		-587.1490478515625],
		"max":[-512.7616577148438,
		87.68049621582031,
		-582.4151611328125]
	},
	{
		"bufferView":3,
		"type":"VEC3",
		"componentType":5126,
		"count":1458,
		"byteOffset":12,
		"min":[-1.0,
		-1.0,
		-1.0],
		"max":[1.0,
		1.0,
		1.0]
	},
	{
		"bufferView":3,
		"type":"VEC2",
		"componentType":5126,
		"count":1458,
		"byteOffset":24,
		"min":[0.0,
		0.0],
		"max":[1.0,
		1.0]
	},
	{
		"bufferView":4,
		"type":"SCALAR",
		"componentType":5123,
		"count":26100,
		"byteOffset":0,
		"min":[0],
		"max":[17399]
	},
	{
		"bufferView":5,
		"type":"VEC3",
		"componentType":5126,
		"count":17400,
		"byteOffset":0,
		"min":[-528.4802856445313,
		-849.8025512695313,
		-587.1490478515625],
		"max":[-512.7616577148438,
		180.48049926757813,
		-582.2230834960938]
	},
	{
		"bufferView":5,
		"type":"VEC3",
		"componentType":5126,
		"count":17400,
		"byteOffset":12,
		"min":[-1.0,
		-1.0,
		-1.0],
		"max":[1.0,
		1.0,
		1.0]
	},
	{
		"bufferView":5,
		"type":"VEC2",
		"componentType":5126,
		"count":17400,
		"byteOffset":24,
		"min":[0.0,
		0.0],
		"max":[1.0,
		1.0]
	},
	{
		"bufferView":6,
		"type":"SCALAR",
		"componentType":5123,
		"count":3348,
		"byteOffset":0,
		"min":[0],
		"max":[1295]
	},
	{
		"bufferView":7,
		"type":"VEC3",
		"componentType":5126,
		"count":1296,
		"byteOffset":0,
		"min":[-528.4802856445313,
		-849.8025512695313,
		-587.1490478515625],
		"max":[-512.7616577148438,
		87.68049621582031,
		-582.8244018554688]
	},
	{
		"bufferView":7,
		"type":"VEC3",
		"componentType":5126,
		"count":1296,
		"byteOffset":12,
		"min":[-1.0,
		-1.0,
		-1.0],
		"max":[1.0,
		1.0,
		1.0]
	},
	{
		"bufferView":7,
		"type":"VEC2",
		"componentType":5126,
		"count":1296,
		"byteOffset":24,
		"min":[0.0003257110365666449,
		0.0003257110365666449],
		"max":[0.7751332521438599,
		0.9990243911743164]
	},
	{
		"bufferView":8,
		"type":"SCALAR",
		"componentType":5123,
		"count":72,
		"byteOffset":0,
		"min":[0],
		"max":[47]
	},
	{
		"bufferView":9,
		"type":"VEC3",
		"componentType":5126,
		"count":48,
		"byteOffset":0,
		"min":[-567.0,
		-104.09911346435547,
		-866.5792236328125],
		"max":[567.0,
		-69.08346557617188,
		105.28279113769531]
	},
	{
		"bufferView":9,
		"type":"VEC3",
		"componentType":5126,
		"count":48,
		"byteOffset":12,
		"min":[-1.0,
		-0.9117408394813538,
		-1.0],
		"max":[1.0,
		0.9080334901809692,
		1.0]
	},
	{
		"bufferView":9,
		"type":"VEC2",
		"componentType":5126,
		"count":48,
		"byteOffset":24,
		"min":[0.0,
		0.0],
		"max":[1.0,
		1.0]
	},
	{
		"bufferView":10,
		"type":"SCALAR",
		"componentType":5123,
		"count":13824,
		"byteOffset":0,
		"min":[0],
		"max":[5363]
	},
	{
		"bufferView":11,
		"type":"VEC3",
		"componentType":5126,
		"count":5364,
		"byteOffset":0,
		"min":[-528.4802856445313,
		-852.4895629882813,
		-587.1490478515625],
		"max":[-512.7616577148438,
		87.68049621582031,
		-581.8838500976563]
	},
	{
		"bufferView":11,
		"type":"VEC3",
		"componentType":5126,
		"count":5364,
		"byteOffset":12,
		"min":[-1.0,
		-1.0,
		-1.0],
		"max":[1.0,
		1.0,
		1.0]
	},
	{
		"bufferView":11,
		"type":"VEC2",
		"componentType":5126,
		"count":5364,
		"byteOffset":24,
		"min":[0.0,
		0.0],
		"max":[1.0,
		1.0]
	},
	{
		"bufferView":12,
		"type":"SCALAR",
		"componentType":5123,
		"count":96,
		"byteOffset":0,
		"min":[0],
		"max":[51]
	},
	{
		"bufferView":13,
		"type":"VEC3",
		"componentType":5126,
		"count":52,
		"byteOffset":0,
		"min":[-911.4552001953125,
		906.875732421875,
		23.377649307250978],
		"max":[248.48712158203126,
		921.998779296875,
		65.53782653808594]
	},
	{
		"bufferView":13,
		"type":"VEC3",
		"componentType":5126,
		"count":52,
		"byteOffset":12,
		"min":[-1.0,
		-0.8439563512802124,
		-0.8039040565490723],
		"max":[1.0,
		0.0,
		0.8039036393165588]
	},
	{
		"bufferView":13,
		"type":"VEC2",
		"componentType":5126,
		"count":52,
		"byteOffset":24,
		"min":[0.0,
		0.0],
		"max":[1.0,
		1.0]
	},
	{
		"bufferView":14,
		"type":"SCALAR",
		"componentType":5123,
		"count":96,
		"byteOffset":0,
		"min":[0],
		"max":[51]
	},
	{
		"bufferView":15,
		"type":"VEC3",
		"componentType":5126,
		"count":52,
		"byteOffset":0,
		"min":[-911.4552001953125,
		906.875732421875,
		21.866561889648439],
		"max":[248.48712158203126,
		925.32470703125,
		67.04891204833985]
	},
	{
		"bufferView":15,
		"type":"VEC3",
		"componentType":5126,
		"count":52,
		"byteOffset":12,
		"min":[-1.0,
		-0.8439563512802124,
		-0.8264903426170349],
		"max":[1.0,
		0.8418743014335632,
		0.8264903426170349]
	},
	{
		"bufferView":15,
		"type":"VEC2",
		"componentType":5126,
		"count":52,
		"byteOffset":24,
		"min":[0.0,
		0.0],
		"max":[1.0,
		1.0]
	},
	{
		"bufferView":16,
		"type":"SCALAR",
		"componentType":5123,
		"count":72,
		"byteOffset":0,
		"min":[0],
		"max":[47]
	},
	{
		"bufferView":17,
		"type":"VEC3",
		"componentType":5126,
		"count":48,
		"byteOffset":0,
		"min":[-911.4552001953125,
		908.4856567382813,
		21.812593460083009],
		"max":[248.48712158203126,
		925.4434814453125,
		67.1028823852539]
	},
	{
		"bufferView":17,
		"type":"VEC3",
		"componentType":5126,
		"count":48,
		"byteOffset":12,
		"min":[-1.0,
		-0.5396788716316223,
		-0.8418710827827454],
		"max":[1.0,
		0.8418741822242737,
		0.8418710827827454]
	},
	{
		"bufferView":17,
		"type":"VEC2",
		"componentType":5126,
		"count":48,
		"byteOffset":24,
		"min":[0.0,
		0.0],
		"max":[1.0,
		1.0]
	},
	{
		"bufferView":18,
		"type":"SCALAR",
		"componentType":5123,
		"count":1440,
		"byteOffset":0,
		"min":[0],
		"max":[574]
	},
	{
		"bufferView":19,
		"type":"VEC3",
		"componentType":5126,
		"count":575,
		"byteOffset":0,
		"min":[-825.5,
		859.8985595703125,
		-52.274070739746097],
		"max":[178.50003051757813,
		890.2433471679688,
		-11.233508110046387]
	},
	{
		"bufferView":19,
		"type":"VEC3",
		"componentType":5126,
		"count":575,
		"byteOffset":12,
		"min":[-1.0,
		-0.9832862019538879,
		-0.841126561164856],
		"max":[1.0,
		0.9836952686309815,
		0.8411313891410828]
	},
	{
		"bufferView":19,
		"type":"VEC2",
		"componentType":5126,
		"count":575,
		"byteOffset":24,
		"min":[0.010002875700592995,
		0.02248154953122139],
		"max":[0.49783432483673098,
		0.2437753677368164]
	},
	{
		"bufferView":20,
		"type":"SCALAR",
		"componentType":5123,
		"count":1896,
		"byteOffset":0,
		"min":[0],
		"max":[805]
	},
	{
		"bufferView":21,
		"type":"VEC3",
		"componentType":5126,
		"count":806,
		"byteOffset":0,
		"min":[-780.5,
		-17.76171875,
		-32.5],
		"max":[32.5,
		3.7144997119903566,
		32.5]
	},
	{
		"bufferView":21,
		"type":"VEC3",
		"componentType":5126,
		"count":806,
		"byteOffset":12,
		"min":[-1.0,
		-1.0,
		-1.0],
		"max":[1.0,
		0.9206650853157044,
		1.0]
	},
	{
		"bufferView":21,
		"type":"VEC2",
		"componentType":5126,
		"count":806,
		"byteOffset":24,
		"min":[0.0,
		0.0],
		"max":[1.0,
		1.0]
	},
	{
		"bufferView":22,
		"type":"SCALAR",
		"componentType":5123,
		"count":15096,
		"byteOffset":0,
		"min":[0],
		"max":[5325]
	},
	{
		"bufferView":23,
		"type":"VEC3",
		"componentType":5126,
		"count":5326,
		"byteOffset":0,
		"min":[-28.988853454589845,
		-50.274803161621097,
		-15.311643600463868],
		"max":[497.6727600097656,
		36.75016403198242,
		52.92268753051758]
	},
	{
		"bufferView":23,
		"type":"VEC3",
		"componentType":5126,
		"count":5326,
		"byteOffset":12,
		"min":[-1.0,
		-1.0,
		-0.9999999403953552],
		"max":[1.0,
		1.0,
		0.9999999403953552]
	},
	{
		"bufferView":23,
		"type":"VEC2",
		"componentType":5126,
		"count":5326,
		"byteOffset":24,
		"min":[-0.0016522555379197002,
		0.0],
		"max":[1.0,
		1.0]
	},
	{
		"bufferView":24,
		"type":"SCALAR",
		"componentType":5123,
		"count":564,
		"byteOffset":0,
		"min":[0],
		"max":[367]
	},
	{
		"bufferView":25,
		"type":"VEC3",
		"componentType":5126,
		"count":368,
		"byteOffset":0,
		"min":[-24.526119232177736,
		-2.070343896320992e-10,
		-1.0],
		"max":[24.526119232177736,
		74.03263854980469,
		5.0]
	},
	{
		"bufferView":25,
		"type":"VEC3",
		"componentType":5126,
		"count":368,
		"byteOffset":12,
		"min":[-1.0,
		-1.0,
		-1.0],
		"max":[1.0,
		1.0,
		1.0]
	},
	{
		"bufferView":25,
		"type":"VEC2",
		"componentType":5126,
		"count":368,
		"byteOffset":24,
		"min":[0.0,
		0.011068070307374],
		"max":[1.493043065071106,
		0.5]
	},
	{
		"bufferView":26,
		"type":"SCALAR",
		"componentType":5123,
		"count":24,
		"byteOffset":0,
		"min":[0],
		"max":[15]
	},
	{
		"bufferView":27,
		"type":"VEC3",
		"componentType":5126,
		"count":16,
		"byteOffset":0,
		"min":[-376.7651062011719,
		8.771933555603028,
		-16.2676944732666],
		"max":[371.5054626464844,
		10.679141998291016,
		22.78632926940918]
	},
	{
		"bufferView":27,
		"type":"VEC3",
		"componentType":5126,
		"count":16,
		"byteOffset":12,
		"min":[0.0,
		0.9987813234329224,
		-0.04871875047683716],
		"max":[0.0,
		0.9987813234329224,
		-0.04871875047683716]
	},
	{
		"bufferView":27,
		"type":"VEC2",
		"componentType":5126,
		"count":16,
		"byteOffset":24,
		"min":[0.0,
		0.0],
		"max":[1.0,
		1.0]
	},
	{
		"bufferView":28,
		"type":"SCALAR",
		"componentType":5123,
		"count":85368,
		"byteOffset":0,
		"min":[0],
		"max":[16535]
	},
	{
		"bufferView":29,
		"type":"VEC3",
		"componentType":5126,
		"count":16536,
		"byteOffset":0,
		"min":[-399.7863464355469,
		-50.55936050415039,
		-17.91720962524414],
		"max":[394.5267028808594,
		11.573298454284668,
		53.106040954589847]
	},
	{
		"bufferView":29,
		"type":"VEC3",
		"componentType":5126,
		"count":16536,
		"byteOffset":12,
		"min":[-1.0,
		-0.9996563196182251,
		-0.9987813234329224],
		"max":[1.0,
		0.9987813234329224,
		0.9994062781333923]
	},
	{
		"bufferView":29,
		"type":"VEC2",
		"componentType":5126,
		"count":16536,
		"byteOffset":24,
		"min":[0.0,
		0.0],
		"max":[1.0,
		1.0]
	}],
	"bufferViews":[{
		"buffer":0,
		"byteOffset":0,
		"byteLength":1128,
		"target":34963
	},
	{
		"buffer":0,
		"byteOffset":1128,
		"byteLength":11776,
		"target":34962,
		"byteStride":32
	},
	{
		"buffer":1,
		"byteOffset":0,
		"byteLength":4212,
		"target":34963
	},
	{
		"buffer":1,
		"byteOffset":4212,
		"byteLength":46656,
		"target":34962,
		"byteStride":32
	},
	{
		"buffer":2,
		"byteOffset":0,
		"byteLength":52200,
		"target":34963
	},
	{
		"buffer":2,
		"byteOffset":52200,
		"byteLength":556800,
		"target":34962,
		"byteStride":32
	},
	{
		"buffer":3,
		"byteOffset":0,
		"byteLength":6696,
		"target":34963
	},
	{
		"buffer":3,
		"byteOffset":6696,
		"byteLength":41472,
		"target":34962,
		"byteStride":32
	},
	{
		"buffer":4,
		"byteOffset":0,
		"byteLength":144,
		"target":34963
	},
	{
		"buffer":4,
		"byteOffset":144,
		"byteLength":1536,
		"target":34962,
		"byteStride":32
	},
	{
		"buffer":5,
		"byteOffset":0,
		"byteLength":27648,
		"target":34963
	},
	{
		"buffer":5,
		"byteOffset":27648,
		"byteLength":171648,
		"target":34962,
		"byteStride":32
	},
	{
		"buffer":6,
		"byteOffset":0,
		"byteLength":192,
		"target":34963
	},
	{
		"buffer":6,
		"byteOffset":192,
		"byteLength":1664,
		"target":34962,
		"byteStride":32
	},
	{
		"buffer":7,
		"byteOffset":0,
		"byteLength":192,
		"target":34963
	},
	{
		"buffer":7,
		"byteOffset":192,
		"byteLength":1664,
		"target":34962,
		"byteStride":32
	},
	{
		"buffer":8,
		"byteOffset":0,
		"byteLength":144,
		"target":34963
	},
	{
		"buffer":8,
		"byteOffset":144,
		"byteLength":1536,
		"target":34962,
		"byteStride":32
	},
	{
		"buffer":9,
		"byteOffset":0,
		"byteLength":2880,
		"target":34963
	},
	{
		"buffer":9,
		"byteOffset":2880,
		"byteLength":18400,
		"target":34962,
		"byteStride":32
	},
	{
		"buffer":10,
		"byteOffset":0,
		"byteLength":3792,
		"target":34963
	},
	{
		"buffer":10,
		"byteOffset":3792,
		"byteLength":25792,
		"target":34962,
		"byteStride":32
	},
	{
		"buffer":11,
		"byteOffset":0,
		"byteLength":30192,
		"target":34963
	},
	{
		"buffer":11,
		"byteOffset":30192,
		"byteLength":170432,
		"target":34962,
		"byteStride":32
	},
	{
		"buffer":12,
		"byteOffset":0,
		"byteLength":1128,
		"target":34963
	},
	{
		"buffer":12,
		"byteOffset":1128,
		"byteLength":11776,
		"target":34962,
		"byteStride":32
	},
	{
		"buffer":13,
		"byteOffset":0,
		"byteLength":48,
		"target":34963
	},
	{
		"buffer":13,
		"byteOffset":48,
		"byteLength":512,
		"target":34962,
		"byteStride":32
	},
	{
		"buffer":14,
		"byteOffset":0,
		"byteLength":170736,
		"target":34963
	},
	{
		"buffer":14,
		"byteOffset":170736,
		"byteLength":529152,
		"target":34962,
		"byteStride":32
	}],
	"buffers":[{
		"uri":"data:application/octet-stream;base64,",
		"byteLength":12904
	},
	{
		"uri":"data:application/octet-stream;base64,",
		"byteLength":50868
	},
	{
		"uri":"data:application/octet-stream;base64,",
		"byteLength":609000
	},
	{
		"uri":"data:application/octet-stream;base64,",
		"byteLength":48168
	},
	{
		"uri":"data:application/octet-stream;base64,",
		"byteLength":1680
	},
	{
		"uri":"data:application/octet-stream;base64,",
		"byteLength":199296
	},
	{
		"uri":"data:application/octet-stream;base64,",
		"byteLength":1856
	},
	{
		"uri":"data:application/octet-stream;base64,",
		"byteLength":1856
	},
	{
		"uri":"data:application/octet-stream;base64,",
		"byteLength":1680
	},
	{
		"uri":"data:application/octet-stream;base64,",
		"byteLength":21280
	},
	{
		"uri":"data:application/octet-stream;base64,",
		"byteLength":29584
	},
	{
		"uri":"data:application/octet-stream;base64,",
		"byteLength":200624
	},
	{
		"uri":"data:application/octet-stream;base64,",
		"byteLength":12904
	},
	{
		"uri":"data:application/octet-stream;base64,",
		"byteLength":560
	},
	{
		"uri":"data:application/octet-stream;base64,",
		"byteLength":699888
	}],
	"materials":[{
		"pbrMetallicRoughness":{
			"baseColorFactor":[0.4,
			0.4,
			0.4,
			1.0],
			"metallicFactor":0.0,
			"roughnessFactor":0.5
		},
		"emissiveFactor":[0.0,
		0.0,
		0.0],
		"alphaMode":"OPAQUE",
		"doubleSided":true,
		"name":"Roof"
	},
	{
		"pbrMetallicRoughness":{
			"baseColorFactor":[0.56,
			0.56,
			0.56,
			1.0],
			"metallicFactor":0.0,
			"roughnessFactor":0.5
		},
		"emissiveFactor":[0.0,
		0.0,
		0.0],
		"alphaMode":"OPAQUE",
		"doubleSided":true,
		"name":"gutter vent"
	},
	{
		"pbrMetallicRoughness":{
			"baseColorFactor":[0.4,
			0.4,
			0.4,
			1.0],
			"metallicFactor":0.0,
			"roughnessFactor":0.5
		},
		"emissiveFactor":[0.0,
		0.0,
		0.0],
		"alphaMode":"OPAQUE",
		"doubleSided":true,
		"name":"Roof"
	},
	{
		"pbrMetallicRoughness":{
			"baseColorFactor":[0.8,
			0.8,
			0.8,
			1.0],
			"metallicFactor":0.0,
			"roughnessFactor":0.5
		},
		"emissiveFactor":[0.0,
		0.0,
		0.0],
		"alphaMode":"OPAQUE",
		"doubleSided":true,
		"name":"House Main"
	},
	{
		"pbrMetallicRoughness":{
			"baseColorFactor":[0.17,
			0.17,
			0.17,
			1.0],
			"metallicFactor":0.0,
			"roughnessFactor":0.5
		},
		"emissiveFactor":[0.0,
		0.0,
		0.0],
		"alphaMode":"OPAQUE",
		"doubleSided":true,
		"name":"Roof"
	},
	{
		"pbrMetallicRoughness":{
			"baseColorFactor":[0.8,
			0.8,
			0.8,
			1.0],
			"metallicFactor":0.0,
			"roughnessFactor":0.5
		},
		"emissiveFactor":[0.0,
		0.0,
		0.0],
		"alphaMode":"OPAQUE",
		"doubleSided":true,
		"name":"House Main"
	}]
}