{
	"nodes":[{
		"name":"intake1",
		"translation":[0.0,
		0.0,
		0.0],
		"rotation":[-0.5,
		-0.5,
		0.5,
		-0.5],
		"scale":[1.0,
		1.0,
		1.0],
		"mesh":0
	},
	{
		"name":"exhaust2",
		"children":[2,
		3]
	},
	{
		"name":"exhaust2-Roof.1",
		"mesh":1
	},
	{
		"name":"exhaust2-Roof",
		"mesh":2
	}],
	"asset":{
		"version":"2.0",
		"generator":"Created using the official Cinema 4D glTF Exporter 1.000x284978"
	},
	"scenes":[{
		"nodes":[0,
		1]
	}],
	"meshes":[{
		"name":"intake1",
		"primitives":[{
			"attributes":{
				"POSITION":1,
				"NORMAL":2,
				"TEXCOORD_0":3
			},
			"indices":0,
			"material":0
		}]
	},
	{
		"name":"exhaust2-Roof.1",
		"primitives":[{
			"attributes":{
				"POSITION":5,
				"NORMAL":6,
				"TEXCOORD_0":7
			},
			"indices":4,
			"material":1
		}]
	},
	{
		"name":"exhaust2-Roof",
		"primitives":[{
			"attributes":{
				"POSITION":9,
				"NORMAL":10,
				"TEXCOORD_0":11
			},
			"indices":8,
			"material":2
		}]
	}],
	"accessors":[{
		"componentType":5123,
		"bufferView":0,
		"min":[0],
		"type":"SCALAR",
		"count":2976,
		"byteOffset":0,
		"max":[1151]
	},
	{
		"componentType":5126,
		"bufferView":1,
		"min":[-528.4802856445313,
		-849.8025512695313,
		-587.1490478515625],
		"type":"VEC3",
		"count":1152,
		"byteOffset":0,
		"max":[439.4151916503906,
		141.6804962158203,
		-582.8244018554688]
	},
	{
		"componentType":5126,
		"bufferView":1,
		"min":[-1.0,
		-1.0,
		-1.0],
		"type":"VEC3",
		"count":1152,
		"byteOffset":12,
		"max":[1.0,
		1.0,
		1.0]
	},
	{
		"componentType":5126,
		"bufferView":1,
		"min":[0.0003257110365666449,
		0.0003257110365666449],
		"type":"VEC2",
		"count":1152,
		"byteOffset":24,
		"max":[0.7751332521438599,
		0.9990243911743164]
	},
	{
		"componentType":5123,
		"bufferView":2,
		"min":[0],
		"type":"SCALAR",
		"count":12,
		"byteOffset":0,
		"max":[5]
	},
	{
		"componentType":5126,
		"bufferView":3,
		"min":[-911.4552001953125,
		906.875732421875,
		21.866561889648439],
		"type":"VEC3",
		"count":6,
		"byteOffset":0,
		"max":[-911.4552001953125,
		925.32470703125,
		67.04891204833985]
	},
	{
		"componentType":5126,
		"bufferView":3,
		"min":[-1.0,
		0.0,
		0.0],
		"type":"VEC3",
		"count":6,
		"byteOffset":12,
		"max":[-1.0,
		0.0,
		0.0]
	},
	{
		"componentType":5126,
		"bufferView":3,
		"min":[0.0,
		0.0],
		"type":"VEC2",
		"count":6,
		"byteOffset":24,
		"max":[0.0,
		1.0]
	},
	{
		"componentType":5123,
		"bufferView":4,
		"min":[0],
		"type":"SCALAR",
		"count":84,
		"byteOffset":0,
		"max":[45]
	},
	{
		"componentType":5126,
		"bufferView":5,
		"min":[-911.4552001953125,
		906.875732421875,
		21.866561889648439],
		"type":"VEC3",
		"count":46,
		"byteOffset":0,
		"max":[248.48712158203126,
		925.32470703125,
		67.04891204833985]
	},
	{
		"componentType":5126,
		"bufferView":5,
		"min":[0.0,
		-0.8439375162124634,
		-0.8264687657356262],
		"type":"VEC3",
		"count":46,
		"byteOffset":12,
		"max":[1.0,
		0.8417813181877136,
		0.8264687657356262]
	},
	{
		"componentType":5126,
		"bufferView":5,
		"min":[0.0,
		0.0],
		"type":"VEC2",
		"count":46,
		"byteOffset":24,
		"max":[1.0,
		1.0]
	}],
	"bufferViews":[{
		"buffer":0,
		"byteOffset":0,
		"byteLength":5952,
		"target":34963
	},
	{
		"buffer":0,
		"byteOffset":5952,
		"byteLength":36864,
		"target":34962,
		"byteStride":32
	},
	{
		"buffer":1,
		"byteOffset":0,
		"byteLength":24,
		"target":34963
	},
	{
		"buffer":1,
		"byteOffset":24,
		"byteLength":192,
		"target":34962,
		"byteStride":32
	},
	{
		"buffer":2,
		"byteOffset":0,
		"byteLength":168,
		"target":34963
	},
	{
		"buffer":2,
		"byteOffset":168,
		"byteLength":1472,
		"target":34962,
		"byteStride":32
	}],
	"buffers":[{
		"uri":"data:application/octet-stream;base64,",
		"byteLength":42816
	},
	{
		"uri":"data:application/octet-stream;base64,",
		"byteLength":216
	},
	{
		"uri":"data:application/octet-stream;base64,",
		"byteLength":1640
	}],
	"materials":[{
		"pbrMetallicRoughness":{
			"baseColorFactor":[0.56,
			0.56,
			0.56,
			1.0],
			"metallicFactor":0.0,
			"roughnessFactor":0.5
		},
		"emissiveFactor":[0.0,
		0.0,
		0.0],
		"alphaMode":"OPAQUE",
		"doubleSided":true,
		"name":"gutter vent"
	},
	{
		"pbrMetallicRoughness":{
			"baseColorFactor":[0.28,
			0.28,
			0.28,
			1.0],
			"metallicFactor":0.0,
			"roughnessFactor":0.5
		},
		"emissiveFactor":[0.0,
		0.0,
		0.0],
		"alphaMode":"OPAQUE",
		"doubleSided":true,
		"name":"Roof.1"
	},
	{
		"pbrMetallicRoughness":{
			"baseColorFactor":[0.4,
			0.4,
			0.4,
			1.0],
			"metallicFactor":0.0,
			"roughnessFactor":0.5
		},
		"emissiveFactor":[0.0,
		0.0,
		0.0],
		"alphaMode":"OPAQUE",
		"doubleSided":true,
		"name":"Roof"
	}]
}