{
	"nodes":[{
		"translation":[0.0,
		0.0,
		0.0],
		"name":"Instructor_Scenario_1_Pre_Intake_Plastic_Soffit_Vent_10",
		"rotation":[-0.5,
		-0.5,
		0.5,
		-0.5],
		"scale":[1.0,
		1.0,
		1.0],
		"mesh":0
	},
	{
		"translation":[-331.48406982421877,
		916.1002197265625,
		44.45773696899414],
		"name":"Instructor_Scenario_1_Pre_Exhaust_Plastic_Ridge_Vent_10ft",
		"rotation":[0.0,
		0.0,
		0.0,
		-1.0],
		"scale":[0.125,
		1.0,
		1.0],
		"children":[2,
		3]
	},
	{
		"name":"Instructor_Scenario_1_Pre_Exhaust_Plastic_Ridge_Vent_10ft-Roof.1",
		"mesh":1
	},
	{
		"name":"Instructor_Scenario_1_Pre_Exhaust_Plastic_Ridge_Vent_10ft-Roof",
		"mesh":2
	},
	{
		"translation":[0.0,
		0.0,
		0.0],
		"name":"Instructor_Scenario_1_Post_Intake_Plastic_Soffit_Vent_18",
		"rotation":[-0.5,
		-0.5,
		0.5,
		-0.5],
		"scale":[1.0,
		1.0,
		1.0],
		"mesh":3
	},
	{
		"translation":[-331.48406982421877,
		916.1002197265625,
		44.45773696899414],
		"name":"Instructor_Scenario_1_Post_Exhaust_Plastic_Ridge_Vent_22ft",
		"rotation":[0.0,
		0.0,
		0.0,
		-1.0],
		"scale":[0.2777777910232544,
		1.0,
		1.0],
		"children":[6,
		7]
	},
	{
		"name":"Instructor_Scenario_1_Post_Exhaust_Plastic_Ridge_Vent_22ft-Roof.1",
		"mesh":4
	},
	{
		"name":"Instructor_Scenario_1_Post_Exhaust_Plastic_Ridge_Vent_22ft-Roof",
		"mesh":5
	},
	{
		"translation":[0.0,
		0.0,
		0.0],
		"name":"Instructor_Scenario_2_Pre_Intake_Plastic_Bird_Block_Holes_30ft",
		"rotation":[-0.5,
		-0.5,
		0.5,
		-0.5],
		"scale":[1.0,
		1.0,
		1.0],
		"mesh":6
	},
	{
		"translation":[-331.48406982421877,
		916.1002197265625,
		44.45773696899414],
		"name":"Instructor_Scenario_2_Pre_Exhaust_Plastic_Ridge_Vent_full",
		"rotation":[0.0,
		0.0,
		0.0,
		-1.0],
		"scale":[1.0,
		1.0,
		1.0],
		"children":[10,
		11]
	},
	{
		"name":"Instructor_Scenario_2_Pre_Exhaust_Plastic_Ridge_Vent_full-Roof.1",
		"mesh":7
	},
	{
		"name":"Instructor_Scenario_2_Pre_Exhaust_Plastic_Ridge_Vent_full-Roof",
		"mesh":8
	},
	{
		"translation":[-330.9441223144531,
		707.9042358398438,
		424.5588073730469],
		"name":"Instructor_Scenario_2_Post_Intake_Rooftop_Vent_full",
		"rotation":[0.0,
		0.0,
		0.0,
		-1.0],
		"scale":[1.0,
		1.0,
		1.0],
		"children":[13,
		14]
	},
	{
		"name":"Instructor_Scenario_2_Post_Intake_Rooftop_Vent_full-Roof",
		"mesh":9
	},
	{
		"name":"Instructor_Scenario_2_Post_Intake_Rooftop_Vent_full-Roof",
		"mesh":10
	},
	{
		"translation":[0.0,
		0.0,
		0.0],
		"name":"Instructor_Scenario_3_Pre_Intake_Aluminum_Undereave_5",
		"rotation":[-0.5,
		-0.5,
		0.5,
		-0.5],
		"scale":[1.0,
		1.0,
		1.0],
		"mesh":11
	},
	{
		"translation":[0.0,
		867.5637817382813,
		-38.14126205444336],
		"name":"Instructor_Scenario_3_Pre_Exhaust_Square_Roof_Louver_3",
		"rotation":[0.9584406614303589,
		-7.615665949574024e-17,
		7.615665949574024e-17,
		0.2852919399738312],
		"scale":[1.0,
		1.0,
		1.0],
		"mesh":12
	},
	{
		"translation":[0.0,
		0.0,
		0.0],
		"name":"Instructor_Scenario_3_Post_Intake_Aluminum_Undereave_10",
		"rotation":[-0.5,
		-0.5,
		0.5,
		-0.5],
		"scale":[1.0,
		1.0,
		1.0],
		"mesh":13
	},
	{
		"translation":[0.0,
		867.5637817382813,
		-38.14126205444336],
		"name":"Instructor_Scenario_3_Post_Exhaust_Square_Roof_Louver_5",
		"rotation":[0.9584406614303589,
		-7.615665949574024e-17,
		7.615665949574024e-17,
		0.2852919399738312],
		"scale":[1.0,
		1.0,
		1.0],
		"mesh":14
	}],
	"asset":{
		"version":"2.0",
		"generator":"Created using the official Cinema 4D glTF Exporter 1.000x284978"
	},
	"scenes":[{
		"nodes":[0,
		1,
		4,
		5,
		8,
		9,
		12,
		15,
		16,
		17,
		18]
	}],
	"materials":[{
		"pbrMetallicRoughness":{
			"baseColorFactor":[0.56,
			0.56,
			0.56,
			1.0],
			"metallicFactor":0.0,
			"roughnessFactor":0.5
		},
		"emissiveFactor":[0.0,
		0.0,
		0.0],
		"alphaMode":"OPAQUE",
		"doubleSided":true,
		"name":"gutter vent"
	},
	{
		"pbrMetallicRoughness":{
			"baseColorFactor":[0.28,
			0.28,
			0.28,
			1.0],
			"metallicFactor":0.0,
			"roughnessFactor":0.5
		},
		"emissiveFactor":[0.0,
		0.0,
		0.0],
		"alphaMode":"OPAQUE",
		"doubleSided":true,
		"name":"Roof.1"
	},
	{
		"pbrMetallicRoughness":{
			"baseColorFactor":[0.4,
			0.4,
			0.4,
			1.0],
			"metallicFactor":0.0,
			"roughnessFactor":0.5
		},
		"emissiveFactor":[0.0,
		0.0,
		0.0],
		"alphaMode":"OPAQUE",
		"doubleSided":true,
		"name":"Roof"
	},
	{
		"pbrMetallicRoughness":{
			"baseColorFactor":[0.17,
			0.17,
			0.17,
			1.0],
			"metallicFactor":0.0,
			"roughnessFactor":0.5
		},
		"emissiveFactor":[0.0,
		0.0,
		0.0],
		"alphaMode":"OPAQUE",
		"doubleSided":true,
		"name":"black"
	},
	{
		"pbrMetallicRoughness":{
			"baseColorFactor":[0.17,
			0.17,
			0.17,
			1.0],
			"metallicFactor":0.0,
			"roughnessFactor":0.5
		},
		"emissiveFactor":[0.0,
		0.0,
		0.0],
		"alphaMode":"OPAQUE",
		"doubleSided":true,
		"name":"Roof"
	}],
	"meshes":[{
		"name":"Instructor_Scenario_1_Pre_Intake_Plastic_Soffit_Vent_10",
		"primitives":[{
			"attributes":{
				"POSITION":1,
				"NORMAL":2,
				"TEXCOORD_0":3
			},
			"indices":0,
			"material":0
		}]
	},
	{
		"name":"Instructor_Scenario_1_Pre_Exhaust_Plastic_Ridge_Vent_10ft-Roof.1",
		"primitives":[{
			"attributes":{
				"POSITION":5,
				"NORMAL":6,
				"TEXCOORD_0":7
			},
			"indices":4,
			"material":1
		}]
	},
	{
		"name":"Instructor_Scenario_1_Pre_Exhaust_Plastic_Ridge_Vent_10ft-Roof",
		"primitives":[{
			"attributes":{
				"POSITION":9,
				"NORMAL":10,
				"TEXCOORD_0":11
			},
			"indices":8,
			"material":2
		}]
	},
	{
		"name":"Instructor_Scenario_1_Post_Intake_Plastic_Soffit_Vent_18",
		"primitives":[{
			"attributes":{
				"POSITION":13,
				"NORMAL":14,
				"TEXCOORD_0":15
			},
			"indices":12,
			"material":0
		}]
	},
	{
		"name":"Instructor_Scenario_1_Post_Exhaust_Plastic_Ridge_Vent_22ft-Roof.1",
		"primitives":[{
			"attributes":{
				"POSITION":17,
				"NORMAL":18,
				"TEXCOORD_0":19
			},
			"indices":16,
			"material":1
		}]
	},
	{
		"name":"Instructor_Scenario_1_Post_Exhaust_Plastic_Ridge_Vent_22ft-Roof",
		"primitives":[{
			"attributes":{
				"POSITION":21,
				"NORMAL":22,
				"TEXCOORD_0":23
			},
			"indices":20,
			"material":2
		}]
	},
	{
		"name":"Instructor_Scenario_2_Pre_Intake_Plastic_Bird_Block_Holes_30ft",
		"primitives":[{
			"attributes":{
				"POSITION":25,
				"NORMAL":26,
				"TEXCOORD_0":27
			},
			"indices":24,
			"material":3
		}]
	},
	{
		"name":"Instructor_Scenario_2_Pre_Exhaust_Plastic_Ridge_Vent_full-Roof.1",
		"primitives":[{
			"attributes":{
				"POSITION":29,
				"NORMAL":30,
				"TEXCOORD_0":31
			},
			"indices":28,
			"material":1
		}]
	},
	{
		"name":"Instructor_Scenario_2_Pre_Exhaust_Plastic_Ridge_Vent_full-Roof",
		"primitives":[{
			"attributes":{
				"POSITION":33,
				"NORMAL":34,
				"TEXCOORD_0":35
			},
			"indices":32,
			"material":2
		}]
	},
	{
		"name":"Instructor_Scenario_2_Post_Intake_Rooftop_Vent_full-Roof",
		"primitives":[{
			"attributes":{
				"POSITION":37,
				"NORMAL":38,
				"TEXCOORD_0":39
			},
			"indices":36,
			"material":2
		}]
	},
	{
		"name":"Instructor_Scenario_2_Post_Intake_Rooftop_Vent_full-Roof",
		"primitives":[{
			"attributes":{
				"POSITION":41,
				"NORMAL":42,
				"TEXCOORD_0":43
			},
			"indices":40,
			"material":4
		}]
	},
	{
		"name":"Instructor_Scenario_3_Pre_Intake_Aluminum_Undereave_5",
		"primitives":[{
			"attributes":{
				"POSITION":45,
				"NORMAL":46,
				"TEXCOORD_0":47
			},
			"indices":44,
			"material":0
		}]
	},
	{
		"name":"Instructor_Scenario_3_Pre_Exhaust_Square_Roof_Louver_3",
		"primitives":[{
			"attributes":{
				"POSITION":49,
				"NORMAL":50,
				"TEXCOORD_0":51
			},
			"indices":48
		}]
	},
	{
		"name":"Instructor_Scenario_3_Post_Intake_Aluminum_Undereave_10",
		"primitives":[{
			"attributes":{
				"POSITION":53,
				"NORMAL":54,
				"TEXCOORD_0":55
			},
			"indices":52,
			"material":0
		}]
	},
	{
		"name":"Instructor_Scenario_3_Post_Exhaust_Square_Roof_Louver_5",
		"primitives":[{
			"attributes":{
				"POSITION":57,
				"NORMAL":58,
				"TEXCOORD_0":59
			},
			"indices":56
		}]
	}],
	"accessors":[{
		"bufferView":0,
		"type":"SCALAR",
		"componentType":5123,
		"count":3720,
		"byteOffset":0,
		"min":[0],
		"max":[1439]
	},
	{
		"bufferView":1,
		"type":"VEC3",
		"componentType":5126,
		"count":1440,
		"byteOffset":0,
		"min":[-528.4802856445313,
		-849.8025512695313,
		-587.1490478515625],
		"max":[-512.7616577148438,
		141.6804962158203,
		-582.8244018554688]
	},
	{
		"bufferView":1,
		"type":"VEC3",
		"componentType":5126,
		"count":1440,
		"byteOffset":12,
		"min":[-1.0,
		-1.0,
		-1.0],
		"max":[1.0,
		1.0,
		1.0]
	},
	{
		"bufferView":1,
		"type":"VEC2",
		"componentType":5126,
		"count":1440,
		"byteOffset":24,
		"min":[0.0003257110365666449,
		0.0003257110365666449],
		"max":[0.7751332521438599,
		0.9990243911743164]
	},
	{
		"bufferView":2,
		"type":"SCALAR",
		"componentType":5123,
		"count":12,
		"byteOffset":0,
		"min":[0],
		"max":[5]
	},
	{
		"bufferView":3,
		"type":"VEC3",
		"componentType":5126,
		"count":6,
		"byteOffset":0,
		"min":[-579.97119140625,
		-9.224489212036133,
		-22.591175079345704],
		"max":[-579.97119140625,
		9.224489212036133,
		22.591175079345704]
	},
	{
		"bufferView":3,
		"type":"VEC3",
		"componentType":5126,
		"count":6,
		"byteOffset":12,
		"min":[-1.0,
		0.0,
		0.0],
		"max":[-1.0,
		0.0,
		0.0]
	},
	{
		"bufferView":3,
		"type":"VEC2",
		"componentType":5126,
		"count":6,
		"byteOffset":24,
		"min":[0.0,
		0.0],
		"max":[0.0,
		1.0]
	},
	{
		"bufferView":4,
		"type":"SCALAR",
		"componentType":5123,
		"count":84,
		"byteOffset":0,
		"min":[0],
		"max":[45]
	},
	{
		"bufferView":5,
		"type":"VEC3",
		"componentType":5126,
		"count":46,
		"byteOffset":0,
		"min":[-579.97119140625,
		-9.224489212036133,
		-22.591175079345704],
		"max":[579.97119140625,
		9.224489212036133,
		22.591175079345704]
	},
	{
		"bufferView":5,
		"type":"VEC3",
		"componentType":5126,
		"count":46,
		"byteOffset":12,
		"min":[0.0,
		-0.8439375162124634,
		-0.8264687657356262],
		"max":[1.0,
		0.8417813181877136,
		0.8264687657356262]
	},
	{
		"bufferView":5,
		"type":"VEC2",
		"componentType":5126,
		"count":46,
		"byteOffset":24,
		"min":[0.0,
		0.0],
		"max":[1.0,
		1.0]
	},
	{
		"bufferView":6,
		"type":"SCALAR",
		"componentType":5123,
		"count":6696,
		"byteOffset":0,
		"min":[0],
		"max":[2591]
	},
	{
		"bufferView":7,
		"type":"VEC3",
		"componentType":5126,
		"count":2592,
		"byteOffset":0,
		"min":[-528.4802856445313,
		-849.8025512695313,
		-587.1490478515625],
		"max":[-512.7616577148438,
		141.6804962158203,
		-582.8244018554688]
	},
	{
		"bufferView":7,
		"type":"VEC3",
		"componentType":5126,
		"count":2592,
		"byteOffset":12,
		"min":[-1.0,
		-1.0,
		-1.0],
		"max":[1.0,
		1.0,
		1.0]
	},
	{
		"bufferView":7,
		"type":"VEC2",
		"componentType":5126,
		"count":2592,
		"byteOffset":24,
		"min":[0.0003257110365666449,
		0.0003257110365666449],
		"max":[0.7751332521438599,
		0.9990243911743164]
	},
	{
		"bufferView":8,
		"type":"SCALAR",
		"componentType":5123,
		"count":12,
		"byteOffset":0,
		"min":[0],
		"max":[5]
	},
	{
		"bufferView":9,
		"type":"VEC3",
		"componentType":5126,
		"count":6,
		"byteOffset":0,
		"min":[-579.97119140625,
		-9.224489212036133,
		-22.591175079345704],
		"max":[-579.97119140625,
		9.224489212036133,
		22.591175079345704]
	},
	{
		"bufferView":9,
		"type":"VEC3",
		"componentType":5126,
		"count":6,
		"byteOffset":12,
		"min":[-1.0,
		0.0,
		0.0],
		"max":[-1.0,
		0.0,
		0.0]
	},
	{
		"bufferView":9,
		"type":"VEC2",
		"componentType":5126,
		"count":6,
		"byteOffset":24,
		"min":[0.0,
		0.0],
		"max":[0.0,
		1.0]
	},
	{
		"bufferView":10,
		"type":"SCALAR",
		"componentType":5123,
		"count":84,
		"byteOffset":0,
		"min":[0],
		"max":[45]
	},
	{
		"bufferView":11,
		"type":"VEC3",
		"componentType":5126,
		"count":46,
		"byteOffset":0,
		"min":[-579.97119140625,
		-9.224489212036133,
		-22.591175079345704],
		"max":[579.97119140625,
		9.224489212036133,
		22.591175079345704]
	},
	{
		"bufferView":11,
		"type":"VEC3",
		"componentType":5126,
		"count":46,
		"byteOffset":12,
		"min":[0.0,
		-0.8439375162124634,
		-0.8264687657356262],
		"max":[1.0,
		0.8417813181877136,
		0.8264687657356262]
	},
	{
		"bufferView":11,
		"type":"VEC2",
		"componentType":5126,
		"count":46,
		"byteOffset":24,
		"min":[0.0,
		0.0],
		"max":[1.0,
		1.0]
	},
	{
		"bufferView":12,
		"type":"SCALAR",
		"componentType":5123,
		"count":4428,
		"byteOffset":0,
		"min":[0],
		"max":[2828]
	},
	{
		"bufferView":13,
		"type":"VEC3",
		"componentType":5126,
		"count":2829,
		"byteOffset":0,
		"min":[-534.9332885742188,
		-587.38916015625,
		-596.5116577148438],
		"max":[-534.9332885742188,
		-102.39189147949219,
		-586.5117797851563]
	},
	{
		"bufferView":13,
		"type":"VEC3",
		"componentType":5126,
		"count":2829,
		"byteOffset":12,
		"min":[0.9999999403953552,
		0.0,
		0.0],
		"max":[1.0,
		0.0,
		0.0]
	},
	{
		"bufferView":13,
		"type":"VEC2",
		"componentType":5126,
		"count":2829,
		"byteOffset":24,
		"min":[0.00002097241667797789,
		0.000005243131454335526],
		"max":[1.0,
		0.9999947547912598]
	},
	{
		"bufferView":14,
		"type":"SCALAR",
		"componentType":5123,
		"count":12,
		"byteOffset":0,
		"min":[0],
		"max":[5]
	},
	{
		"bufferView":15,
		"type":"VEC3",
		"componentType":5126,
		"count":6,
		"byteOffset":0,
		"min":[-579.97119140625,
		-9.224489212036133,
		-22.591175079345704],
		"max":[-579.97119140625,
		9.224489212036133,
		22.591175079345704]
	},
	{
		"bufferView":15,
		"type":"VEC3",
		"componentType":5126,
		"count":6,
		"byteOffset":12,
		"min":[-1.0,
		0.0,
		0.0],
		"max":[-1.0,
		0.0,
		0.0]
	},
	{
		"bufferView":15,
		"type":"VEC2",
		"componentType":5126,
		"count":6,
		"byteOffset":24,
		"min":[0.0,
		0.0],
		"max":[0.0,
		1.0]
	},
	{
		"bufferView":16,
		"type":"SCALAR",
		"componentType":5123,
		"count":84,
		"byteOffset":0,
		"min":[0],
		"max":[45]
	},
	{
		"bufferView":17,
		"type":"VEC3",
		"componentType":5126,
		"count":46,
		"byteOffset":0,
		"min":[-579.97119140625,
		-9.224489212036133,
		-22.591175079345704],
		"max":[579.97119140625,
		9.224489212036133,
		22.591175079345704]
	},
	{
		"bufferView":17,
		"type":"VEC3",
		"componentType":5126,
		"count":46,
		"byteOffset":12,
		"min":[0.0,
		-0.8439375162124634,
		-0.8264687657356262],
		"max":[1.0,
		0.8417813181877136,
		0.8264687657356262]
	},
	{
		"bufferView":17,
		"type":"VEC2",
		"componentType":5126,
		"count":46,
		"byteOffset":24,
		"min":[0.0,
		0.0],
		"max":[1.0,
		1.0]
	},
	{
		"bufferView":18,
		"type":"SCALAR",
		"componentType":5123,
		"count":60,
		"byteOffset":0,
		"min":[0],
		"max":[31]
	},
	{
		"bufferView":19,
		"type":"VEC3",
		"componentType":5126,
		"count":32,
		"byteOffset":0,
		"min":[-567.0,
		-104.09911346435547,
		-866.5792236328125],
		"max":[567.0,
		-69.08346557617188,
		105.28279113769531]
	},
	{
		"bufferView":19,
		"type":"VEC3",
		"componentType":5126,
		"count":32,
		"byteOffset":12,
		"min":[0.0,
		-0.9719687700271606,
		-1.0],
		"max":[1.0,
		0.9079688191413879,
		1.0]
	},
	{
		"bufferView":19,
		"type":"VEC2",
		"componentType":5126,
		"count":32,
		"byteOffset":24,
		"min":[0.0,
		0.0],
		"max":[1.0,
		1.0]
	},
	{
		"bufferView":20,
		"type":"SCALAR",
		"componentType":5123,
		"count":36,
		"byteOffset":0,
		"min":[0],
		"max":[23]
	},
	{
		"bufferView":21,
		"type":"VEC3",
		"componentType":5126,
		"count":24,
		"byteOffset":0,
		"min":[-567.0,
		-104.09911346435547,
		-866.5792236328125],
		"max":[567.0,
		-69.08346557617188,
		105.28279113769531]
	},
	{
		"bufferView":21,
		"type":"VEC3",
		"componentType":5126,
		"count":24,
		"byteOffset":12,
		"min":[-1.0,
		0.0,
		-1.0],
		"max":[1.0,
		0.0,
		1.0]
	},
	{
		"bufferView":21,
		"type":"VEC2",
		"componentType":5126,
		"count":24,
		"byteOffset":24,
		"min":[0.0,
		0.0],
		"max":[1.0,
		1.0]
	},
	{
		"bufferView":22,
		"type":"SCALAR",
		"componentType":5123,
		"count":540,
		"byteOffset":0,
		"min":[0],
		"max":[389]
	},
	{
		"bufferView":23,
		"type":"VEC3",
		"componentType":5126,
		"count":390,
		"byteOffset":0,
		"min":[-528.4802856445313,
		-849.8025512695313,
		-587.1490478515625],
		"max":[-512.7616577148438,
		141.6804962158203,
		-582.4151611328125]
	},
	{
		"bufferView":23,
		"type":"VEC3",
		"componentType":5126,
		"count":390,
		"byteOffset":12,
		"min":[-1.0,
		-1.0,
		-1.0],
		"max":[1.0,
		1.0,
		1.0]
	},
	{
		"bufferView":23,
		"type":"VEC2",
		"componentType":5126,
		"count":390,
		"byteOffset":24,
		"min":[0.0,
		0.0],
		"max":[1.0,
		1.0]
	},
	{
		"bufferView":24,
		"type":"SCALAR",
		"componentType":5123,
		"count":1422,
		"byteOffset":0,
		"min":[0],
		"max":[604]
	},
	{
		"bufferView":25,
		"type":"VEC3",
		"componentType":5126,
		"count":605,
		"byteOffset":0,
		"min":[-851.941650390625,
		-17.76171875,
		-32.5],
		"max":[163.05836486816407,
		3.7144997119903566,
		32.5]
	},
	{
		"bufferView":25,
		"type":"VEC3",
		"componentType":5126,
		"count":605,
		"byteOffset":12,
		"min":[-1.0,
		-1.0,
		-1.0],
		"max":[1.0,
		0.9206653237342835,
		1.0]
	},
	{
		"bufferView":25,
		"type":"VEC2",
		"componentType":5126,
		"count":605,
		"byteOffset":24,
		"min":[0.0,
		0.0],
		"max":[1.0,
		1.0]
	},
	{
		"bufferView":26,
		"type":"SCALAR",
		"componentType":5123,
		"count":1080,
		"byteOffset":0,
		"min":[0],
		"max":[779]
	},
	{
		"bufferView":27,
		"type":"VEC3",
		"componentType":5126,
		"count":780,
		"byteOffset":0,
		"min":[-528.4802856445313,
		-849.8025512695313,
		-587.1490478515625],
		"max":[-512.7616577148438,
		141.6804962158203,
		-582.4151611328125]
	},
	{
		"bufferView":27,
		"type":"VEC3",
		"componentType":5126,
		"count":780,
		"byteOffset":12,
		"min":[-1.0,
		-1.0,
		-1.0],
		"max":[1.0,
		1.0,
		1.0]
	},
	{
		"bufferView":27,
		"type":"VEC2",
		"componentType":5126,
		"count":780,
		"byteOffset":24,
		"min":[0.0,
		0.0],
		"max":[1.0,
		1.0]
	},
	{
		"bufferView":28,
		"type":"SCALAR",
		"componentType":5123,
		"count":2370,
		"byteOffset":0,
		"min":[0],
		"max":[1006]
	},
	{
		"bufferView":29,
		"type":"VEC3",
		"componentType":5126,
		"count":1007,
		"byteOffset":0,
		"min":[-851.941650390625,
		-17.76171875,
		-32.5],
		"max":[163.05836486816407,
		3.7144997119903566,
		32.5]
	},
	{
		"bufferView":29,
		"type":"VEC3",
		"componentType":5126,
		"count":1007,
		"byteOffset":12,
		"min":[-1.0,
		-1.0,
		-1.0],
		"max":[1.0,
		0.9206653237342835,
		1.0]
	},
	{
		"bufferView":29,
		"type":"VEC2",
		"componentType":5126,
		"count":1007,
		"byteOffset":24,
		"min":[0.0,
		0.0],
		"max":[1.0,
		1.0]
	}],
	"bufferViews":[{
		"buffer":0,
		"byteOffset":0,
		"byteLength":7440,
		"target":34963
	},
	{
		"buffer":0,
		"byteOffset":7440,
		"byteLength":46080,
		"target":34962,
		"byteStride":32
	},
	{
		"buffer":1,
		"byteOffset":0,
		"byteLength":24,
		"target":34963
	},
	{
		"buffer":1,
		"byteOffset":24,
		"byteLength":192,
		"target":34962,
		"byteStride":32
	},
	{
		"buffer":2,
		"byteOffset":0,
		"byteLength":168,
		"target":34963
	},
	{
		"buffer":2,
		"byteOffset":168,
		"byteLength":1472,
		"target":34962,
		"byteStride":32
	},
	{
		"buffer":3,
		"byteOffset":0,
		"byteLength":13392,
		"target":34963
	},
	{
		"buffer":3,
		"byteOffset":13392,
		"byteLength":82944,
		"target":34962,
		"byteStride":32
	},
	{
		"buffer":4,
		"byteOffset":0,
		"byteLength":24,
		"target":34963
	},
	{
		"buffer":4,
		"byteOffset":24,
		"byteLength":192,
		"target":34962,
		"byteStride":32
	},
	{
		"buffer":5,
		"byteOffset":0,
		"byteLength":168,
		"target":34963
	},
	{
		"buffer":5,
		"byteOffset":168,
		"byteLength":1472,
		"target":34962,
		"byteStride":32
	},
	{
		"buffer":6,
		"byteOffset":0,
		"byteLength":8856,
		"target":34963
	},
	{
		"buffer":6,
		"byteOffset":8856,
		"byteLength":90528,
		"target":34962,
		"byteStride":32
	},
	{
		"buffer":7,
		"byteOffset":0,
		"byteLength":24,
		"target":34963
	},
	{
		"buffer":7,
		"byteOffset":24,
		"byteLength":192,
		"target":34962,
		"byteStride":32
	},
	{
		"buffer":8,
		"byteOffset":0,
		"byteLength":168,
		"target":34963
	},
	{
		"buffer":8,
		"byteOffset":168,
		"byteLength":1472,
		"target":34962,
		"byteStride":32
	},
	{
		"buffer":9,
		"byteOffset":0,
		"byteLength":120,
		"target":34963
	},
	{
		"buffer":9,
		"byteOffset":120,
		"byteLength":1024,
		"target":34962,
		"byteStride":32
	},
	{
		"buffer":10,
		"byteOffset":0,
		"byteLength":72,
		"target":34963
	},
	{
		"buffer":10,
		"byteOffset":72,
		"byteLength":768,
		"target":34962,
		"byteStride":32
	},
	{
		"buffer":11,
		"byteOffset":0,
		"byteLength":1080,
		"target":34963
	},
	{
		"buffer":11,
		"byteOffset":1080,
		"byteLength":12480,
		"target":34962,
		"byteStride":32
	},
	{
		"buffer":12,
		"byteOffset":0,
		"byteLength":2844,
		"target":34963
	},
	{
		"buffer":12,
		"byteOffset":2844,
		"byteLength":19360,
		"target":34962,
		"byteStride":32
	},
	{
		"buffer":13,
		"byteOffset":0,
		"byteLength":2160,
		"target":34963
	},
	{
		"buffer":13,
		"byteOffset":2160,
		"byteLength":24960,
		"target":34962,
		"byteStride":32
	},
	{
		"buffer":14,
		"byteOffset":0,
		"byteLength":4740,
		"target":34963
	},
	{
		"buffer":14,
		"byteOffset":4740,
		"byteLength":32224,
		"target":34962,
		"byteStride":32
	}],
	"buffers":[{
		"uri":"data:application/octet-stream;base64,",
		"byteLength":53520
	},
	{
		"uri":"data:application/octet-stream;base64,",
		"byteLength":216
	},
	{
		"uri":"data:application/octet-stream;base64,",
		"byteLength":1640
	},
	{
		"uri":"data:application/octet-stream;base64,",
		"byteLength":96336
	},
	{
		"uri":"data:application/octet-stream;base64,",
		"byteLength":216
	},
	{
		"uri":"data:application/octet-stream;base64,",
		"byteLength":1640
	},
	{
		"uri":"data:application/octet-stream;base64,",
		"byteLength":99384
	},
	{
		"uri":"data:application/octet-stream;base64,",
		"byteLength":216
	},
	{
		"uri":"data:application/octet-stream;base64,",
		"byteLength":1640
	},
	{
		"uri":"data:application/octet-stream;base64,",
		"byteLength":1144
	},
	{
		"uri":"data:application/octet-stream;base64,",
		"byteLength":840
	},
	{
		"uri":"data:application/octet-stream;base64,",
		"byteLength":13560
	},
	{
		"uri":"data:application/octet-stream;base64,",
		"byteLength":22204
	},
	{
		"uri":"data:application/octet-stream;base64,",
		"byteLength":27120
	},
	{
		"uri":"data:application/octet-stream;base64,",
		"byteLength":36964
	}]
}